PathFileType	4	(X/Y/Z)	./resultDataOpenSim/trcMotMarkerGrf/sub10/qtm-02-03.trc
DataRate	CameraRate	NumFrames	NumMarkers	Units	OrigDataRate	OrigDataStartFrame	OrigNumFrames
250.000000	250.000000	10	24	m	250.000000	358	477
Frame#	Time	L.Toe.Tip			R.Toe.Tip			L.Ankle.Lat			R.Ankle.Lat			L.Ankle.Med			R.Ankle.Med			L.Heel			R.Heel			L.Knee.Lat			R.Knee.Lat			L.Knee.Med			R.Knee.Med			L.Thigh.Upper			R.Thigh.Upper			L.ASIS			R.ASIS			V.Sacral			L.Acromium			R.Acromium			C7			L.Elbow			R.Elbow			L.Wrist.Lat			R.Wrist.Lat
		X1	Y1	Z1	X2	Y2	Z2	X3	Y3	Z3	X4	Y4	Z4	X5	Y5	Z5	X6	Y6	Z6	X7	Y7	Z7	X8	Y8	Z8	X9	Y9	Z9	X10	Y10	Z10	X11	Y11	Z11	X12	Y12	Z12	X13	Y13	Z13	X14	Y14	Z14	X15	Y15	Z15	X16	Y16	Z16	X17	Y17	Z17	X18	Y18	Z18	X19	Y19	Z19	X20	Y20	Z20	X21	Y21	Z21	X22	Y22	Z22	X23	Y23	Z23	X24	Y24	Z24

358	1.428	0.67911262	0.076237361	-0.10721054	0.92417694	0.03863746	0.041656233	0.60436786	0.1911953	-0.11836995	0.78309998	0.056144443	0.088269554	0.63856612	0.19500208	-0.040554158	0.79827693	0.082195529	0.0030569594	0.54415502	0.2109943	-0.063079904	0.72950025	0.033056836	0.046351345	0.87251495	0.4551266	-0.16658358	0.86142552	0.45243	0.11686426	0.90689136	0.42235734	-0.05229207	0.84605422	0.45828037	-0.011788977	0.78859568	0.82714972	-0.20003497	0.85149058	0.87159723	0.17307219	0.85292127	0.94970747	-0.15279758	0.90395332	0.96223276	0.084557461	0.68653684	0.96366942	0.0073974427	0.77806503	1.4350768	-0.16375601	0.76930081	1.4177543	0.16138023	0.68956147	1.4448112	-0.006766301	0.74781272	1.0917682	-0.22266395	0.69001055	1.0721998	0.204147	0.91525787	0.91317503	-0.23744937	0.84772708	0.89351962	0.26977343
359	1.432	0.69784544	0.075244919	-0.10776478	0.92419962	0.03862963	0.04171585	0.61960153	0.18786946	-0.11812148	0.78323693	0.056327468	0.088208253	0.65405766	0.19223934	-0.040449953	0.79839282	0.082448818	0.0031646408	0.55889424	0.20588084	-0.062623935	0.72917847	0.033221862	0.046381518	0.88314446	0.45748619	-0.16642461	0.86217222	0.45250809	0.11739513	0.91782206	0.42485089	-0.05240897	0.84767865	0.45843856	-0.010988475	0.79555566	0.82862396	-0.20092053	0.85512329	0.87165258	0.1730875	0.85924899	0.9511759	-0.15221748	0.90856134	0.96260187	0.085174289	0.69078252	0.96458643	0.0057737781	0.78344165	1.4359094	-0.16385944	0.77500296	1.4187821	0.16124634	0.69518111	1.4456444	-0.0065604446	0.75076833	1.0930489	-0.22271508	0.69826521	1.0726501	0.20560121	0.91544228	0.91211974	-0.23945771	0.85986725	0.89637251	0.26964038
360	1.436	0.71655991	0.074182131	-0.10835376	0.9242277	0.038617088	0.041772709	0.63500309	0.18439476	-0.11791203	0.78336812	0.056528952	0.088156287	0.66999264	0.18932052	-0.040492345	0.79857117	0.082700121	0.0032253446	0.57384886	0.20061902	-0.062208789	0.72896826	0.033413233	0.046348517	0.89369001	0.45980343	-0.16628017	0.86287293	0.45261202	0.11793697	0.92856791	0.42732822	-0.05248098	0.84918123	0.4586094	-0.010290211	0.80249596	0.83002775	-0.20181574	0.85870574	0.87167876	0.17307068	0.86553225	0.95251419	-0.15162797	0.91307998	0.96294591	0.085839085	0.69477881	0.96545094	0.0039243416	0.7888148	1.4366663	-0.16397803	0.78069583	1.4197455	0.16111031	0.7008077	1.4463946	-0.0063885766	0.75372063	1.0942736	-0.22277699	0.70652733	1.0730967	0.20699027	0.9156858	0.91109961	-0.24149905	0.87194088	0.89923109	0.26948035
361	1.44	0.73528406	0.073087382	-0.10899223	0.92426337	0.038600953	0.041826681	0.65057898	0.18078219	-0.11774563	0.78346086	0.056735543	0.088124392	0.68630043	0.1862808	-0.040653769	0.79879424	0.08294002	0.0032506691	0.5889979	0.19522093	-0.061811643	0.72893438	0.033631773	0.046243152	0.90414768	0.46201264	-0.16616811	0.86354266	0.45273719	0.1184845	0.9391795	0.42977816	-0.052526965	0.8505684	0.45878645	-0.0097020288	0.80953294	0.83134346	-0.20257164	0.86226315	0.87168843	0.17301831	0.87173235	0.95373026	-0.15104177	0.91759006	0.96323322	0.086522056	0.69886308	0.96623405	0.0021466461	0.7941856	1.4373446	-0.1641044	0.78638235	1.4206347	0.16097166	0.70642328	1.4470602	-0.0063802736	0.75667478	1.095438	-0.22283815	0.71479177	1.0734906	0.20843208	0.91590091	0.91009468	-0.24353521	0.88395621	0.90209776	0.2693025
362	1.444	0.7540207	0.071976896	-0.10969282	0.92430933	0.038585715	0.041881203	0.66633706	0.17704803	-0.11763476	0.7835152	0.056938533	0.088113392	0.7027589	0.1831441	-0.040855183	0.79903068	0.083158613	0.003263511	0.60433808	0.18970285	-0.061450726	0.72903114	0.033861337	0.046102553	0.91450461	0.46405015	-0.16610902	0.86419777	0.45287455	0.11903264	0.94982033	0.43217367	-0.052587291	0.85199669	0.45894782	-0.0091348925	0.81667596	0.83255838	-0.20318769	0.86584125	0.87170568	0.17292726	0.87782715	0.95482781	-0.15046324	0.92214469	0.96344364	0.087205497	0.70331358	0.96691138	0.00064019988	0.79955917	1.4379464	-0.16422564	0.79206087	1.4214412	0.16083062	0.71201982	1.4476577	-0.0065889602	0.75964179	1.0965395	-0.22287983	0.72305891	1.0738146	0.20992576	0.91601695	0.90908869	-0.24552403	0.89591716	0.90496705	0.2691109
363	1.448	0.7727978	0.070851427	-0.11047198	0.92436688	0.038574688	0.04193926	0.68226316	0.17321658	-0.11757975	0.78354532	0.057139633	0.08811723	0.71915177	0.17992053	-0.041017627	0.79928481	0.083354389	0.0032674523	0.61989919	0.18408966	-0.061206701	0.72923314	0.034104202	0.045941141	0.92475665	0.46589281	-0.16613108	0.8648264	0.45301599	0.11956522	0.96065803	0.43449091	-0.052695968	0.85356398	0.45907152	-0.0085357917	0.82383379	0.83368425	-0.20376589	0.86948499	0.87175416	0.1728052	0.88388075	0.95579873	-0.1498814	0.92673568	0.96358038	0.087893563	0.7081467	0.96749835	-0.00064917902	0.80494259	1.4384774	-0.16433864	0.79772785	1.4221702	0.16068776	0.71760354	1.4481936	-0.006892559	0.76263192	1.0975756	-0.22287906	0.73132465	1.0740633	0.21140751	0.91605236	0.9080827	-0.24746623	0.90782863	0.90782772	0.26890301
364	1.452	0.7916655	0.069717819	-0.11134229	0.92443191	0.038564653	0.042000709	0.69833042	0.16931221	-0.11756691	0.78356315	0.057341504	0.08812595	0.73544849	0.17661591	-0.041126297	0.79956721	0.083539162	0.0032598641	0.63571986	0.17840198	-0.061161028	0.72955082	0.034394881	0.045750981	0.93491002	0.46757437	-0.1662448	0.86536435	0.45315687	0.12004917	0.9716623	0.43672407	-0.052848846	0.85517332	0.45914795	-0.00798653	0.83093043	0.83474282	-0.20437525	0.87317168	0.87182728	0.1726708	0.8900464	0.9566301	-0.14928717	0.93133985	0.96365078	0.088590947	0.71321843	0.96804239	-0.0019057486	0.8103433	1.4389374	-0.16444905	0.80338858	1.4228332	0.16054386	0.7231851	1.4486544	-0.0070586333	0.7656489	1.0985434	-0.22281612	0.73961668	1.0742334	0.21282956	0.91607743	0.90708031	-0.24939566	0.91969674	0.91067284	0.26867286
365	1.456	0.81064421	0.068593486	-0.1123045	0.92449375	0.038547702	0.042065805	0.71453177	0.16535095	-0.11759002	0.78357681	0.057541323	0.088131331	0.75173698	0.17324622	-0.041215518	0.79984407	0.083731559	0.0032560636	0.65182349	0.1726386	-0.061319948	0.72993476	0.034753255	0.045548415	0.94496297	0.46915258	-0.1664175	0.86574708	0.45329488	0.12046545	0.98254873	0.43888247	-0.052988088	0.8566795	0.45917503	-0.0075894542	0.8379573	0.83573981	-0.20499311	0.87680119	0.87187308	0.17254331	0.8964191	0.95731977	-0.14868869	0.9359487	0.96365665	0.089294237	0.71839061	0.96858529	-0.0032804383	0.81576394	1.4393196	-0.16456011	0.80905135	1.4234347	0.16039987	0.72876859	1.4490302	-0.0069765518	0.7686908	1.0994403	-0.22268427	0.74800048	1.0743399	0.21420078	0.91610584	0.90607689	-0.25133131	0.93152899	0.91350544	0.26841545
366	1.46	0.82970671	0.067489336	-0.11335373	0.92454214	0.038518818	0.042138252	0.73087882	0.16134263	-0.1176543	0.78359168	0.057733328	0.088130688	0.76805718	0.1698438	-0.041313806	0.80005751	0.083939474	0.0032796367	0.66823763	0.16678171	-0.061634136	0.73028037	0.035132042	0.045403455	0.95491822	0.47064771	-0.16661542	0.86601596	0.45342697	0.12084706	0.99302572	0.4409733	-0.0530551	0.85813683	0.45914458	-0.0072881871	0.84495937	0.83666295	-0.20554495	0.88030696	0.87183635	0.17243441	0.90292035	0.95788182	-0.14810542	0.94055325	0.96359995	0.089998554	0.7235958	0.9691359	-0.0048073369	0.82119868	1.4396209	-0.1646718	0.81471313	1.4239694	0.16025491	0.73434703	1.4493285	-0.0067698656	0.77175389	1.1002662	-0.22249052	0.75654114	1.0744161	0.21557278	0.91607109	0.90507363	-0.25326867	0.94333502	0.91632958	0.26813078
367	1.464	0.84881594	0.066402826	-0.11449101	0.92457766	0.038476557	0.042218799	0.74737621	0.1573005	-0.11776311	0.78360814	0.05791524	0.088125462	0.78436553	0.16645074	-0.041416738	0.80017739	0.08415353	0.0033397282	0.6849917	0.16081564	-0.062026643	0.73056384	0.035443386	0.045422332	0.96480826	0.47202701	-0.16685625	0.86630206	0.45354631	0.12124421	1.0030035	0.44299198	-0.053050052	0.85974124	0.45904673	-0.0069238557	0.85205576	0.83749669	-0.20596108	0.8837465	0.87171453	0.17235637	0.90939345	0.95833962	-0.14754624	0.94513577	0.96348525	0.090702186	0.72883426	0.96967585	-0.0063485804	0.8266371	1.4398437	-0.1647885	0.82036534	1.4244263	0.16010577	0.73990929	1.449557	-0.0066287449	0.77483485	1.1010232	-0.22224914	0.76526239	1.0744811	0.21699093	0.91594381	0.90408422	-0.25521406	0.95512555	0.91913851	0.26782521
